<svg width="14" height="14" viewBox="0 0 14 14" fill="none" xmlns="http://www.w3.org/2000/svg">
<path d="M8.12712 2.07288L9.10449 4.15013C9.23763 4.43922 9.60431 4.72222 9.91797 4.78222L11.7709 5.13571C12.9558 5.36238 13.2151 6.23215 12.3376 7.06311L10.8568 8.47484C10.606 8.71393 10.4606 9.18309 10.5283 9.52314L10.8997 11.3233C11.1924 12.7482 10.427 13.2785 9.1909 12.5079L7.47187 11.4341C7.16141 11.2399 6.6424 11.2276 6.3172 11.4065L4.54889 12.3971C3.28323 13.1079 2.53834 12.5358 2.8986 11.1324L3.35539 9.35191C3.43927 9.01549 3.31642 8.53992 3.07733 8.28914L1.6656 6.80836C0.834503 5.93662 1.12919 5.08007 2.32359 4.91019L4.19127 4.64552C4.5016 4.60041 4.88137 4.33523 5.02815 4.05282L6.10353 2.02457C6.68996 0.924089 7.5997 0.945805 8.12712 2.07288Z" fill="#FFE24F"/>
</svg>
