<svg width="20" height="22" viewBox="0 0 20 22" fill="none" xmlns="http://www.w3.org/2000/svg">
<path d="M8.7302 3.47998C11.6748 3.47999 14.6265 3.61126 17.5652 3.8667L18.8239 3.98389L18.8991 3.99463C19.272 4.06992 19.5341 4.41758 19.4958 4.8042C19.4548 5.21625 19.0876 5.51691 18.6755 5.47607C15.3697 5.14848 12.0446 4.98 8.7302 4.97998C6.7755 4.97998 4.82005 5.0784 2.86496 5.27588L2.86301 5.27686L0.822972 5.47607C0.410766 5.51649 0.0440984 5.21541 0.00363606 4.80322C-0.0367762 4.39102 0.264299 4.02435 0.676488 3.98389L2.71457 3.78467V3.78369C4.71942 3.58119 6.72497 3.47998 8.7302 3.47998Z" fill="#292D32"/>
<path d="M11.0593 0C11.9942 0 12.717 0.205349 13.1882 0.748047C13.6145 1.23931 13.703 1.88766 13.7693 2.29492L13.989 3.59473C14.0581 4.00313 13.7831 4.39085 13.3747 4.45996C12.9919 4.52464 12.628 4.2864 12.5271 3.91992L12.5105 3.84473L12.2898 2.54492V2.54102C12.2061 2.028 12.1526 1.84341 12.0554 1.73145C12.0014 1.66929 11.8132 1.5 11.0593 1.5H8.44017C7.67407 1.5 7.49154 1.6648 7.4431 1.71973C7.35107 1.8242 7.29973 1.99971 7.2097 2.53418L6.989 3.84375C6.92041 4.25216 6.53412 4.52842 6.12572 4.45996C5.71722 4.39136 5.44188 4.0042 5.51048 3.5957L5.73021 2.28613V2.28516C5.80008 1.87024 5.88791 1.21544 6.3181 0.727539C6.79216 0.189965 7.51627 0 8.44017 0H11.0593Z" fill="#292D32"/>
<path d="M16.648 7.14195C17.0612 7.16862 17.3747 7.52468 17.3482 7.93785L16.6988 18.0082L16.6978 18.0121C16.6711 18.3934 16.6429 18.815 16.5641 19.2064C16.4837 19.6055 16.3423 20.027 16.0553 20.4007C15.4541 21.1834 14.4301 21.5003 12.9596 21.5003H6.53964C5.06927 21.5003 4.04604 21.1834 3.44492 20.4007C3.15785 20.027 3.01652 19.6055 2.93613 19.2064C2.85729 18.815 2.82808 18.3934 2.80136 18.0121V18.0082L2.15195 7.93785C2.12551 7.52468 2.43893 7.16862 2.85214 7.14195C3.26531 7.11551 3.62137 7.42894 3.64804 7.84215L4.29843 17.9076L4.3414 18.4554C4.35793 18.6209 4.37873 18.771 4.40683 18.9105C4.46138 19.1812 4.53664 19.3593 4.63437 19.4867C4.80318 19.7065 5.22048 20.0003 6.53964 20.0003H12.9596C14.2789 20.0003 14.696 19.7065 14.8648 19.4867C14.9627 19.3593 15.0388 19.1815 15.0934 18.9105C15.1495 18.6316 15.1735 18.3113 15.2018 17.9076L15.8512 7.84215C15.8778 7.42887 16.2348 7.1154 16.648 7.14195Z" fill="#292D32"/>
<path d="M11.4097 14.5L11.4858 14.5039C11.8642 14.5421 12.1597 14.8615 12.1597 15.25C12.1597 15.6385 11.8642 15.9579 11.4858 15.9961L11.4097 16H8.07959C7.66538 16 7.32959 15.6642 7.32959 15.25C7.32959 14.8358 7.66538 14.5 8.07959 14.5H11.4097Z" fill="#292D32"/>
<path d="M12.25 10.5C12.6642 10.5 13 10.8358 13 11.25C13 11.6642 12.6642 12 12.25 12H7.25C6.83579 12 6.5 11.6642 6.5 11.25C6.5 10.8358 6.83579 10.5 7.25 10.5H12.25Z" fill="#292D32"/>
</svg>
