<svg width="188" height="48" viewBox="0 0 188 48" fill="none" xmlns="http://www.w3.org/2000/svg">
<path d="M0 21.7411L4.11864 42.8238C9.15254 42.0048 21.6915 41.7934 31.5763 47.5C35.4407 45.2544 46.2966 41.1752 58.8051 42.8238L63 21.7411C60.7432 21.9598 57.8648 22.5053 54.7627 23.473C45.6654 26.311 34.644 32.7796 31.7322 45.2808C31.6773 45.5164 31.6253 45.7542 31.5763 45.9941C31.5383 45.7639 31.4934 45.5259 31.4414 45.2808C30.0754 38.8371 23.7961 27.4434 8.16102 23.1821C5.68182 22.5064 2.96738 22.01 0 21.7411Z" fill="url(#paint0_linear_1313_23287)"/>
<path d="M31.4414 45.2808C31.8677 38.1476 27.9305 23.1361 8.77119 20.156C9.1017 20.826 9.44237 22.3692 8.16102 23.1821C23.7961 27.4434 30.0754 38.8371 31.4414 45.2808Z" fill="url(#paint1_linear_1313_23287)"/>
<path d="M53.9237 20.156C36.2288 22.3118 31.7565 37.8041 31.7322 45.2808C34.644 32.7796 45.6654 26.311 54.7627 23.473C53.3593 22.3223 53.6186 20.7822 53.9237 20.156Z" fill="url(#paint2_linear_1313_23287)"/>
<path d="M14.6441 15.7175C14.6441 15.8796 14.6311 16.0384 14.6061 16.1931C14.5704 16.4141 14.5103 16.6265 14.4287 16.8272C14.0121 17.8518 13.036 18.5708 11.8983 18.5708C10.3819 18.5708 9.15254 17.2934 9.15254 15.7175C9.15254 14.1417 10.3819 12.8642 11.8983 12.8642C12.8057 12.8642 13.6102 13.3216 14.1102 14.0266C14.2845 14.2725 14.4218 14.5485 14.5135 14.8457C14.5983 15.1205 14.6441 15.4135 14.6441 15.7175Z" fill="url(#paint3_linear_1313_23287)"/>
<path d="M25.7797 9.3769C25.7797 9.68096 25.7339 9.97392 25.6491 10.2487C25.5712 10.5012 25.4605 10.7383 25.322 10.9547C24.8301 11.7235 23.989 12.2302 23.0339 12.2302C22.0788 12.2302 21.2377 11.7235 20.7458 10.9547C20.5787 10.6936 20.4519 10.4022 20.3746 10.0902C20.3182 9.86223 20.2881 9.62321 20.2881 9.3769C20.2881 7.80107 21.5175 6.52361 23.0339 6.52361C23.7371 6.52361 24.3786 6.79834 24.8644 7.25014C25.0738 7.44491 25.2543 7.67259 25.3983 7.92536C25.6406 8.35061 25.7797 8.84688 25.7797 9.3769Z" fill="url(#paint4_linear_1313_23287)"/>
<path d="M34.322 3.35329C34.322 3.5996 34.292 3.83862 34.2355 4.06661C33.9307 5.29725 32.8557 6.20658 31.5763 6.20658C30.7137 6.20658 29.9441 5.79327 29.4407 5.14685C29.2464 4.89731 29.0917 4.61303 28.9867 4.30438C28.8856 4.0069 28.8305 3.68678 28.8305 3.35329C28.8305 1.77746 30.0598 0.5 31.5763 0.5C33.0927 0.5 34.322 1.77746 34.322 3.35329Z" fill="url(#paint5_linear_1313_23287)"/>
<path d="M42.7119 9.05986C42.7119 9.51539 42.6091 9.94598 42.4265 10.328C42.3189 10.5528 42.1837 10.7608 42.0254 10.9472C41.5223 11.5395 40.7862 11.9132 39.9661 11.9132C39.1035 11.9132 38.3339 11.4998 37.8305 10.8534C37.6872 10.6694 37.5655 10.4664 37.4693 10.2487C37.3095 9.88682 37.2203 9.48416 37.2203 9.05986C37.2203 8.20766 37.5799 7.44272 38.1499 6.9199C38.6339 6.47595 39.2697 6.20658 39.9661 6.20658C41.4825 6.20658 42.7119 7.48404 42.7119 9.05986Z" fill="url(#paint6_linear_1313_23287)"/>
<path d="M53.8475 15.7175C53.8475 17.2934 52.6181 18.5708 51.1017 18.5708C49.9936 18.5708 49.0387 17.8887 48.6049 16.9064C48.4854 16.6359 48.4055 16.3426 48.3727 16.0346C48.3616 15.9305 48.3559 15.8247 48.3559 15.7175C48.3559 15.3542 48.4213 15.0068 48.5404 14.6872C48.6136 14.4908 48.7787 14.1464 48.8898 13.9739C49.3824 13.2092 50.1497 12.8642 51.1017 12.8642C52.6181 12.8642 53.8475 14.1417 53.8475 15.7175Z" fill="url(#paint7_linear_1313_23287)"/>
<path d="M42.7119 20.6315C42.7119 22.2074 41.4825 23.4848 39.9661 23.4848C39.0474 23.4848 38.2341 23.016 37.7356 22.296C37.601 22.1015 37.4894 21.8887 37.4048 21.6619C37.2857 21.3423 37.2203 20.9948 37.2203 20.6315C37.2203 19.9749 37.4338 19.37 37.7925 18.8879C37.936 18.6951 38.1026 18.5219 38.2881 18.3729C38.7522 18.0001 39.3342 17.7782 39.9661 17.7782C40.7457 17.7782 41.4493 18.1158 41.9492 18.658C42.1306 18.8549 42.2852 19.0787 42.4068 19.3231C42.6017 19.715 42.7119 20.1599 42.7119 20.6315Z" fill="url(#paint8_linear_1313_23287)"/>
<path d="M34.322 27.1307C34.322 28.7065 33.0927 29.984 31.5763 29.984C30.0598 29.984 28.8305 28.7065 28.8305 27.1307C28.8305 26.5473 28.999 26.0048 29.2881 25.5529C29.3985 25.3804 29.5266 25.221 29.6695 25.0776C30.1634 24.5822 30.8356 24.2774 31.5763 24.2774C32.1853 24.2774 32.7481 24.4835 33.2035 24.8322C33.393 24.9773 33.5639 25.1472 33.7119 25.3371C34.0935 25.8272 34.322 26.4512 34.322 27.1307Z" fill="url(#paint9_linear_1313_23287)"/>
<path d="M25.7797 20.6315C25.7797 20.9948 25.7143 21.3423 25.5952 21.6619C25.5106 21.8887 25.399 22.1015 25.2644 22.296C24.7659 23.016 23.9526 23.4848 23.0339 23.4848C21.5175 23.4848 20.2881 22.2074 20.2881 20.6315C20.2881 20.0732 20.4425 19.5522 20.7093 19.1124C20.8295 18.914 20.9726 18.7322 21.1348 18.5708C21.6279 18.0799 22.297 17.7782 23.0339 17.7782C23.7009 17.7782 24.3124 18.0254 24.7881 18.4364C24.9433 18.5704 25.084 18.7219 25.2075 18.8879C25.5662 19.37 25.7797 19.9749 25.7797 20.6315Z" fill="url(#paint10_linear_1313_23287)"/>
<path d="M34.322 15.0835C34.322 15.417 34.267 15.7371 34.1658 16.0346C34.0993 16.2302 34.0128 16.416 33.9089 16.5894C33.4243 17.3983 32.5608 17.9368 31.5763 17.9368C30.4982 17.9368 29.5652 17.2911 29.1159 16.3516C29.0094 16.1288 28.93 15.8895 28.8824 15.6383C28.8483 15.4588 28.8305 15.2733 28.8305 15.0835C28.8305 14.5307 28.9818 14.0147 29.2436 13.5776C29.3637 13.3772 29.5069 13.1935 29.6695 13.0304C30.1634 12.535 30.8356 12.2302 31.5763 12.2302C32.2433 12.2302 32.8548 12.4773 33.3305 12.8883C33.4856 13.0224 33.6263 13.1738 33.7498 13.3398C34.1086 13.822 34.322 14.4268 34.322 15.0835Z" fill="url(#paint11_linear_1313_23287)"/>
<path d="M20.3746 10.0902L14.1102 14.0266C14.2845 14.2725 14.4218 14.5485 14.5135 14.8457L20.7458 10.9547C20.5787 10.6936 20.4519 10.4022 20.3746 10.0902Z" fill="url(#paint12_linear_1313_23287)"/>
<path d="M28.9867 4.30438L24.8644 7.25014C25.0738 7.44491 25.2543 7.67259 25.3983 7.92536L29.4407 5.14685C29.2464 4.89731 29.0917 4.61303 28.9867 4.30438Z" fill="url(#paint13_linear_1313_23287)"/>
<path d="M33.8947 4.8827L37.5877 7.63322C37.7371 7.36472 37.9275 7.12388 38.1499 6.9199L34.2355 4.06661C34.163 4.35948 34.0468 4.63415 33.8947 4.8827Z" fill="url(#paint14_linear_1313_23287)"/>
<path d="M42.0254 10.9472L48.5404 14.6872C48.6136 14.4908 48.7787 14.1464 48.8898 13.9739L42.4265 10.328C42.3189 10.5528 42.1837 10.7608 42.0254 10.9472Z" fill="url(#paint15_linear_1313_23287)"/>
<path d="M25.322 10.9547L29.2436 13.5776C29.3637 13.3772 29.5069 13.1935 29.6695 13.0304L25.6491 10.2487C25.5712 10.5012 25.4605 10.7383 25.322 10.9547Z" fill="url(#paint16_linear_1313_23287)"/>
<path d="M28.8824 15.6383L24.7881 18.4364C24.9433 18.5704 25.084 18.7219 25.2075 18.8879L29.1159 16.3516C29.0094 16.1288 28.93 15.8895 28.8824 15.6383Z" fill="url(#paint17_linear_1313_23287)"/>
<path d="M38.2881 18.3729L34.1658 16.0346C34.0993 16.2302 34.0128 16.416 33.9089 16.5894L37.7925 18.8879C37.936 18.6951 38.1026 18.5219 38.2881 18.3729Z" fill="url(#paint18_linear_1313_23287)"/>
<path d="M37.4693 10.2487L33.3305 12.8883C33.4856 13.0224 33.6263 13.1738 33.7498 13.3398L37.8305 10.8534C37.6872 10.6694 37.5655 10.4664 37.4693 10.2487Z" fill="url(#paint19_linear_1313_23287)"/>
<path d="M20.7093 19.1124C20.8295 18.914 20.9726 18.7322 21.1348 18.5708L14.6061 16.1931C14.5704 16.4141 14.5103 16.6265 14.4287 16.8272L20.7093 19.1124Z" fill="url(#paint20_linear_1313_23287)"/>
<path d="M48.3727 16.0346C46.7997 16.2882 43.4349 17.8892 41.9492 18.658C42.1306 18.8549 42.2852 19.0787 42.4068 19.3231C44.4814 18.1495 47.4033 17.223 48.6049 16.9064C48.4854 16.6359 48.4055 16.3426 48.3727 16.0346Z" fill="url(#paint21_linear_1313_23287)"/>
<path d="M37.4048 21.6619L33.2035 24.8322C33.393 24.9773 33.5639 25.1472 33.7119 25.3371L37.7356 22.296C37.601 22.1015 37.4894 21.8887 37.4048 21.6619Z" fill="url(#paint22_linear_1313_23287)"/>
<path d="M25.2644 22.296L29.2881 25.5529C29.3985 25.3804 29.5266 25.221 29.6695 25.0776L25.5952 21.6619C25.5106 21.8887 25.399 22.1015 25.2644 22.296Z" fill="url(#paint23_linear_1313_23287)"/>
<path d="M183.99 33.6685L178.068 26.1271L183.353 19.9669H187.15L180.564 27.4807V24.9116L188 33.6685H183.99ZM175.359 33.6685V14.3315H178.546V33.6685H175.359Z" fill="#3052B9"/>
<path d="M156.564 33.6685V19.9669H159.299L159.565 22.1768H159.671C160.114 21.3849 160.698 20.768 161.424 20.326C162.167 19.8656 163.079 19.6354 164.159 19.6354C165.221 19.6354 166.133 19.8748 166.894 20.3536C167.656 20.814 168.24 21.5138 168.647 22.4531C169.054 23.3739 169.258 24.5157 169.258 25.8785V33.6685H166.098V26.21C166.098 24.9945 165.85 24.0645 165.354 23.4199C164.876 22.7569 164.132 22.4254 163.123 22.4254C162.468 22.4254 161.884 22.5912 161.371 22.9227C160.875 23.2542 160.476 23.733 160.175 24.3591C159.892 24.9669 159.751 25.7127 159.751 26.5967V33.6685H156.564Z" fill="#3052B9"/>
<path d="M146.807 33.6685V19.9668H149.994V33.6685H146.807ZM148.4 17.9503C147.816 17.9503 147.329 17.7661 146.94 17.3978C146.568 17.011 146.382 16.5322 146.382 15.9613C146.382 15.4088 146.568 14.9484 146.94 14.5801C147.329 14.1934 147.816 14 148.4 14C148.984 14 149.471 14.1934 149.861 14.5801C150.25 14.9484 150.445 15.418 150.445 15.9889C150.445 16.5414 150.25 17.011 149.861 17.3978C149.471 17.7661 148.984 17.9503 148.4 17.9503Z" fill="#3052B9"/>
<path d="M127.723 33.6685V14.3315H130.856V22.2597H130.963C131.458 21.3941 132.078 20.7403 132.822 20.2984C133.565 19.8564 134.433 19.6354 135.424 19.6354C136.469 19.6354 137.363 19.8748 138.106 20.3536C138.85 20.814 139.416 21.5138 139.806 22.4531C140.213 23.3739 140.417 24.5157 140.417 25.8785V33.6685H137.257V26.21C137.257 24.9945 137.018 24.0645 136.54 23.4199C136.079 22.7569 135.344 22.4254 134.335 22.4254C133.698 22.4254 133.114 22.5912 132.583 22.9227C132.051 23.2542 131.635 23.733 131.334 24.3591C131.051 24.9669 130.909 25.7127 130.909 26.5967V33.6685H127.723Z" fill="#3052B9"/>
<path d="M120.033 33.6685C119.148 33.6685 118.369 33.5212 117.696 33.2265C117.023 32.9319 116.501 32.4438 116.129 31.7624C115.775 31.081 115.598 30.1602 115.598 29V22.5636H113.34V19.9669H115.598L115.943 16.3757H118.785V19.9669H122.396V22.5636H118.785V29C118.785 29.7551 118.926 30.2707 119.21 30.547C119.493 30.8232 119.989 30.9613 120.697 30.9613H122.29V33.6685H120.033Z" fill="#3052B9"/>
<path d="M102.342 34C101.085 34 99.9523 33.6961 98.9431 33.0884C97.934 32.4807 97.1284 31.6427 96.5264 30.5746C95.9422 29.488 95.6501 28.2357 95.6501 26.8177C95.6501 25.3996 95.9422 24.1473 96.5264 23.0608C97.1284 21.9742 97.934 21.1363 98.9431 20.547C99.97 19.9392 101.112 19.6354 102.369 19.6354C103.644 19.6354 104.786 19.9392 105.795 20.547C106.804 21.1363 107.601 21.9742 108.185 23.0608C108.787 24.1473 109.088 25.3996 109.088 26.8177C109.088 28.2357 108.787 29.488 108.185 30.5746C107.601 31.6427 106.795 32.4807 105.768 33.0884C104.759 33.6961 103.617 34 102.342 34ZM102.342 31.2652C102.98 31.2652 103.555 31.0994 104.069 30.768C104.6 30.4365 105.025 29.9484 105.343 29.3039C105.68 28.6409 105.848 27.8122 105.848 26.8177C105.848 25.8232 105.689 24.9945 105.37 24.3315C105.051 23.6685 104.626 23.1805 104.095 22.8674C103.564 22.5359 102.997 22.3702 102.396 22.3702C101.776 22.3702 101.2 22.5359 100.669 22.8674C100.138 23.1805 99.7044 23.6685 99.368 24.3315C99.0493 24.9945 98.89 25.8232 98.89 26.8177C98.89 27.8122 99.0493 28.6409 99.368 29.3039C99.7044 29.9484 100.129 30.4365 100.643 30.768C101.174 31.0994 101.74 31.2652 102.342 31.2652Z" fill="#3052B9"/>
<path d="M81.9762 34C80.1349 34 78.5415 33.5856 77.196 32.7569C75.8504 31.9097 74.8147 30.7403 74.0888 29.2486C73.3629 27.7385 73 25.9981 73 24.0276C73 22.0387 73.3629 20.2983 74.0888 18.8066C74.8147 17.2965 75.8504 16.1179 77.196 15.2707C78.5415 14.4236 80.1349 14 81.9762 14C84.207 14 86.0217 14.5709 87.4204 15.7127C88.8367 16.8361 89.722 18.4291 90.076 20.4917H86.5705C86.3404 19.4051 85.8358 18.558 85.0568 17.9503C84.2955 17.3241 83.2686 17.011 81.9762 17.011C80.79 17.011 79.7631 17.2965 78.8956 17.8674C78.0458 18.4199 77.3907 19.221 76.9304 20.2707C76.4701 21.3204 76.2399 22.5727 76.2399 24.0276C76.2399 25.4641 76.4701 26.7072 76.9304 27.7569C77.3907 28.8066 78.0458 29.6169 78.8956 30.1878C79.7631 30.7403 80.79 31.0165 81.9762 31.0165C83.2686 31.0165 84.3044 30.7219 85.0834 30.1326C85.8624 29.5433 86.3758 28.7422 86.6237 27.7293H90.076C89.722 29.6814 88.8367 31.2191 87.4204 32.3425C86.0217 33.4475 84.207 34 81.9762 34Z" fill="#3052B9"/>
<defs>
<linearGradient id="paint0_linear_1313_23287" x1="0.0762712" y1="3.36087" x2="63.0003" y2="3.27547" gradientUnits="userSpaceOnUse">
<stop stop-color="#3051B9"/>
<stop offset="0.5" stop-color="#5276E6"/>
<stop offset="1" stop-color="#3051B9"/>
</linearGradient>
<linearGradient id="paint1_linear_1313_23287" x1="31.5" y1="0.5" x2="31.5" y2="47.5" gradientUnits="userSpaceOnUse">
<stop stop-color="#91A6F0"/>
<stop offset="0.211538" stop-color="#A0B1F2"/>
<stop offset="1" stop-color="#DADCFA"/>
</linearGradient>
<linearGradient id="paint2_linear_1313_23287" x1="31.5" y1="0.5" x2="31.5" y2="47.5" gradientUnits="userSpaceOnUse">
<stop stop-color="#91A6F0"/>
<stop offset="0.211538" stop-color="#A0B1F2"/>
<stop offset="1" stop-color="#DADCFA"/>
</linearGradient>
<linearGradient id="paint3_linear_1313_23287" x1="31.5" y1="0.5" x2="31.5" y2="29.984" gradientUnits="userSpaceOnUse">
<stop stop-color="#4F74E6"/>
<stop offset="1" stop-color="#E2E2FB"/>
</linearGradient>
<linearGradient id="paint4_linear_1313_23287" x1="31.5" y1="0.5" x2="31.5" y2="29.984" gradientUnits="userSpaceOnUse">
<stop stop-color="#4F74E6"/>
<stop offset="1" stop-color="#E2E2FB"/>
</linearGradient>
<linearGradient id="paint5_linear_1313_23287" x1="31.5" y1="0.5" x2="31.5" y2="29.984" gradientUnits="userSpaceOnUse">
<stop stop-color="#4F74E6"/>
<stop offset="1" stop-color="#E2E2FB"/>
</linearGradient>
<linearGradient id="paint6_linear_1313_23287" x1="31.5" y1="0.5" x2="31.5" y2="29.984" gradientUnits="userSpaceOnUse">
<stop stop-color="#4F74E6"/>
<stop offset="1" stop-color="#E2E2FB"/>
</linearGradient>
<linearGradient id="paint7_linear_1313_23287" x1="31.5" y1="0.5" x2="31.5" y2="29.984" gradientUnits="userSpaceOnUse">
<stop stop-color="#4F74E6"/>
<stop offset="1" stop-color="#E2E2FB"/>
</linearGradient>
<linearGradient id="paint8_linear_1313_23287" x1="31.5" y1="0.5" x2="31.5" y2="29.984" gradientUnits="userSpaceOnUse">
<stop stop-color="#4F74E6"/>
<stop offset="1" stop-color="#E2E2FB"/>
</linearGradient>
<linearGradient id="paint9_linear_1313_23287" x1="31.5" y1="0.5" x2="31.5" y2="29.984" gradientUnits="userSpaceOnUse">
<stop stop-color="#4F74E6"/>
<stop offset="1" stop-color="#E2E2FB"/>
</linearGradient>
<linearGradient id="paint10_linear_1313_23287" x1="31.5" y1="0.5" x2="31.5" y2="29.984" gradientUnits="userSpaceOnUse">
<stop stop-color="#4F74E6"/>
<stop offset="1" stop-color="#E2E2FB"/>
</linearGradient>
<linearGradient id="paint11_linear_1313_23287" x1="31.5" y1="0.5" x2="31.5" y2="29.984" gradientUnits="userSpaceOnUse">
<stop stop-color="#4F74E6"/>
<stop offset="1" stop-color="#E2E2FB"/>
</linearGradient>
<linearGradient id="paint12_linear_1313_23287" x1="31.5" y1="0.5" x2="31.5" y2="29.984" gradientUnits="userSpaceOnUse">
<stop stop-color="#4F74E6"/>
<stop offset="1" stop-color="#E2E2FB"/>
</linearGradient>
<linearGradient id="paint13_linear_1313_23287" x1="31.5" y1="0.5" x2="31.5" y2="29.984" gradientUnits="userSpaceOnUse">
<stop stop-color="#4F74E6"/>
<stop offset="1" stop-color="#E2E2FB"/>
</linearGradient>
<linearGradient id="paint14_linear_1313_23287" x1="31.5" y1="0.5" x2="31.5" y2="29.984" gradientUnits="userSpaceOnUse">
<stop stop-color="#4F74E6"/>
<stop offset="1" stop-color="#E2E2FB"/>
</linearGradient>
<linearGradient id="paint15_linear_1313_23287" x1="31.5" y1="0.5" x2="31.5" y2="29.984" gradientUnits="userSpaceOnUse">
<stop stop-color="#4F74E6"/>
<stop offset="1" stop-color="#E2E2FB"/>
</linearGradient>
<linearGradient id="paint16_linear_1313_23287" x1="31.5" y1="0.5" x2="31.5" y2="29.984" gradientUnits="userSpaceOnUse">
<stop stop-color="#4F74E6"/>
<stop offset="1" stop-color="#E2E2FB"/>
</linearGradient>
<linearGradient id="paint17_linear_1313_23287" x1="31.5" y1="0.5" x2="31.5" y2="29.984" gradientUnits="userSpaceOnUse">
<stop stop-color="#4F74E6"/>
<stop offset="1" stop-color="#E2E2FB"/>
</linearGradient>
<linearGradient id="paint18_linear_1313_23287" x1="31.5" y1="0.5" x2="31.5" y2="29.984" gradientUnits="userSpaceOnUse">
<stop stop-color="#4F74E6"/>
<stop offset="1" stop-color="#E2E2FB"/>
</linearGradient>
<linearGradient id="paint19_linear_1313_23287" x1="31.5" y1="0.5" x2="31.5" y2="29.984" gradientUnits="userSpaceOnUse">
<stop stop-color="#4F74E6"/>
<stop offset="1" stop-color="#E2E2FB"/>
</linearGradient>
<linearGradient id="paint20_linear_1313_23287" x1="31.5" y1="0.5" x2="31.5" y2="29.984" gradientUnits="userSpaceOnUse">
<stop stop-color="#4F74E6"/>
<stop offset="1" stop-color="#E2E2FB"/>
</linearGradient>
<linearGradient id="paint21_linear_1313_23287" x1="31.5" y1="0.5" x2="31.5" y2="29.984" gradientUnits="userSpaceOnUse">
<stop stop-color="#4F74E6"/>
<stop offset="1" stop-color="#E2E2FB"/>
</linearGradient>
<linearGradient id="paint22_linear_1313_23287" x1="31.5" y1="0.5" x2="31.5" y2="29.984" gradientUnits="userSpaceOnUse">
<stop stop-color="#4F74E6"/>
<stop offset="1" stop-color="#E2E2FB"/>
</linearGradient>
<linearGradient id="paint23_linear_1313_23287" x1="31.5" y1="0.5" x2="31.5" y2="29.984" gradientUnits="userSpaceOnUse">
<stop stop-color="#4F74E6"/>
<stop offset="1" stop-color="#E2E2FB"/>
</linearGradient>
</defs>
</svg>
