<svg width="22" height="21" viewBox="0 0 22 21" fill="none" xmlns="http://www.w3.org/2000/svg">
<path d="M15.75 5.57007C16.1642 5.57007 16.5 5.90585 16.5 6.32007C16.5 6.73428 16.1642 7.07007 15.75 7.07007H4.75C4.33579 7.07007 4 6.73428 4 6.32007C4 5.90585 4.33579 5.57007 4.75 5.57007H15.75Z" fill="#595959"/>
<path d="M11.75 9.57007C12.1642 9.57007 12.5 9.90586 12.5 10.3201C12.5 10.7343 12.1642 11.0701 11.75 11.0701H4.75C4.33579 11.0701 4 10.7343 4 10.3201C4 9.90586 4.33579 9.57007 4.75 9.57007H11.75Z" fill="#595959"/>
<path d="M20 5.75006C20 4.4205 19.5601 3.37075 18.8447 2.65533C18.1293 1.93992 17.0796 1.50006 15.75 1.50006H5.75C4.42044 1.50006 3.37069 1.93992 2.65527 2.65533C1.93986 3.37075 1.5 4.4205 1.5 5.75006V11.7501C1.5 13.0796 1.93986 14.1294 2.65527 14.8448C3.37069 15.5602 4.42044 16.0001 5.75 16.0001H9.75C9.89779 16.0001 10.042 16.0442 10.165 16.126L14.6152 19.086C14.7801 19.1958 15 19.077 15 18.8799V16.7501C15 16.3358 15.3358 16.0001 15.75 16.0001C17.0796 16.0001 18.1293 15.5602 18.8447 14.8448C19.5601 14.1294 20 13.0796 20 11.7501V5.75006ZM21.5 11.7501C21.5 13.4205 20.9399 14.8708 19.9053 15.9053C19.0289 16.7817 17.8541 17.3156 16.5 17.459V18.8799C16.5 20.2828 14.9393 21.104 13.7842 20.334L9.52441 17.5001H5.75C4.07956 17.5001 2.62931 16.9399 1.59473 15.9053C0.560142 14.8708 0 13.4205 0 11.7501V5.75006C0 4.07963 0.560142 2.62937 1.59473 1.59479C2.62931 0.560203 4.07956 6.10352e-05 5.75 6.10352e-05H15.75C17.4204 6.10352e-05 18.8707 0.560203 19.9053 1.59479C20.9399 2.62937 21.5 4.07963 21.5 5.75006V11.7501Z" fill="#595959"/>
</svg>
